<svg width="412" height="412" viewBox="0 0 412 412" xmlns="http://www.w3.org/2000/svg">
<path d="M105.002 158.106L105.002 158.106C104.948 156.881 105.84 156 106.784 156H304.584C305.528 156 306.419 156.881 306.365 158.106L307.364 158.15L306.365 158.106L299.016 324.736C298.357 339.692 287.008 351.279 273.324 351.279H138.043C124.359 351.279 113.01 339.692 112.351 324.736L111.352 324.78L112.351 324.736L105.002 158.106ZM250.224 168.435C244.679 168.435 240.316 173.263 240.316 179.058V304.162C240.316 309.957 244.679 314.785 250.224 314.785C255.77 314.785 260.132 309.957 260.132 304.162V179.058C260.132 173.263 255.77 168.435 250.224 168.435ZM205.684 168.435C200.138 168.435 195.776 173.263 195.776 179.058V304.162C195.776 309.957 200.138 314.785 205.684 314.785C211.229 314.785 215.592 309.957 215.592 304.162V179.058C215.592 173.263 211.229 168.435 205.684 168.435ZM161.143 168.435C155.598 168.435 151.235 173.263 151.235 179.058V304.162C151.235 309.957 155.598 314.785 161.143 314.785C166.688 314.785 171.051 309.957 171.051 304.162V179.058C171.051 173.263 166.688 168.435 161.143 168.435Z" fill="#000" stroke="#000" stroke-width="2"/>
<path d="M249.346 92.4934V93.4934H250.346H299.341C311.016 93.4934 320.611 103.743 320.611 116.552V135.798C320.611 140.635 316.999 144.422 312.703 144.422H98.9081C94.6117 144.422 91 140.635 91 135.798V116.552C91 103.743 100.595 93.4934 112.27 93.4934H161.265H162.265V92.4934V82.8701C162.265 67.4035 173.853 55 187.989 55H223.622C237.758 55 249.346 67.4035 249.346 82.8701V92.4934ZM232.53 93.4934H233.53V92.4934V82.8701C233.53 77.087 229.156 72.2467 223.622 72.2467H187.989C182.455 72.2467 178.081 77.087 178.081 82.8701V92.4934V93.4934H179.081H232.53Z" fill="#000" stroke="#000" stroke-width="2"/>
</svg>
